Fly_normalized_Motion_pl16
version=1
nRows=16
nColumns=43
inDegrees=yes
endheader
time		pelvis_tilt		pelvis_list		pelvis_rotation		pelvis_tx		pelvis_ty		pelvis_tz		hip_flexion_r		hip_adduction_r		hip_rotation_r		knee_angle_r		ankle_angle_r		subtalar_angle_r		mtp_angle_r		hip_flexion_l		hip_adduction_l		hip_rotation_l		knee_angle_l		ankle_angle_l		subtalar_angle_l		mtp_angle_l		lumbar_extension		lumbar_bending		lumbar_rotation		neck_flexion		neck_lateral_bending		neck_rotation		arm_flex_r		arm_add_r		arm_rot_r		elbow_flex_r		pro_sup_r		wrist_flex_r		wrist_dev_r		hand_finger_flex_r		arm_flex_l		arm_add_l		arm_rot_l		elbow_flex_l		pro_sup_l		wrist_flex_l		wrist_dev_l		hand_finger_flex_l		
0.612500		1.037234		-23.145998		86.031620		0.021666		2.025504		1.468334		42.610793		4.785242		6.169085		-84.723306		-7.882823		-5.580741		24.604791		50.139306		-8.244023		-3.186498		-88.071606		-8.659884		-9.559322		22.497592		-29.108109		-0.994299		1.884322		11.663140		-2.074100		3.544704		111.688004		-6.812997		16.440562		67.877744		108.820548		-0.954849		5.935705		33.667988		112.858234		-15.110896		23.667388		72.444212		87.257157		-15.500915		2.658779		30.760355		
0.617045		1.115272		-23.001544		86.116387		0.021350		2.025986		1.461394		42.700056		4.926304		6.071299		-84.514969		-7.321756		-5.553428		24.751862		50.378972		-8.207656		-2.921042		-87.744001		-8.533102		-9.859026		22.534862		-29.281740		-0.917954		1.869494		11.670622		-2.082367		3.533462		111.490067		-6.561969		16.411472		67.589981		108.779238		-0.920052		5.955749		33.658182		112.471554		-14.828395		23.381743		72.352230		87.169259		-15.544349		2.724845		30.749554		
0.621591		1.231795		-22.847895		86.199037		0.020973		2.026352		1.454558		42.809630		5.112365		5.980807		-84.230363		-6.818116		-5.773915		24.756516		50.625830		-8.179027		-2.609562		-87.384376		-8.361503		-10.200862		22.565848		-29.484968		-0.812876		1.861396		11.725964		-2.014815		3.536433		111.223573		-6.202460		16.193807		67.133757		108.662236		-0.920233		5.982729		33.606360		111.942526		-14.472070		22.881593		72.232770		87.045281		-15.655547		2.779672		30.742848		
0.626136		1.595455		-22.656002		86.513516		0.020492		2.026624		1.447557		42.917821		5.357806		5.525874		-83.839155		-7.030080		-6.511770		24.330844		50.917541		-8.260556		-2.056533		-87.036621		-8.342213		-10.647114		22.665833		-29.729049		-0.393354		1.878268		11.601140		-2.174256		3.610719		110.805723		-5.795001		15.887756		66.753832		108.518925		-0.637591		5.893284		33.516926		111.175167		-14.054067		22.115081		72.243953		87.124817		-15.556513		3.054242		30.923119		
0.630682		1.653579		-22.455543		86.525329		0.020253		2.026709		1.440987		43.217673		5.479689		5.425404		-83.599181		-7.423496		-7.018017		24.092516		51.168841		-8.282850		-1.805268		-86.624247		-8.280135		-10.663260		22.716059		-30.047706		-0.389493		1.837645		11.846884		-1.976185		3.573893		110.447442		-5.353286		15.564702		66.280873		108.463949		-0.673869		5.900218		33.411157		110.643217		-13.758869		21.707893		72.137207		87.139189		-15.644823		3.087733		30.962205		
0.635227		1.690164		-22.254679		86.551261		0.019950		2.026806		1.434323		43.545359		5.534724		5.252176		-83.287279		-8.162247		-7.960671		23.801314		51.402138		-8.284165		-1.570310		-86.126440		-8.199042		-10.577605		22.788901		-30.366717		-0.391727		1.781564		11.942998		-1.900126		3.636765		109.893682		-4.927742		15.147622		65.928210		108.415873		-0.673618		5.864893		33.331867		109.972516		-13.470820		21.270257		72.114241		87.200810		-15.739626		3.154190		31.046055		
0.639773		1.697817		-22.068509		86.555611		0.019554		2.026557		1.427714		43.965178		5.568396		5.067753		-83.096332		-8.775559		-9.192937		23.631084		51.678240		-8.277879		-1.376138		-85.656253		-8.064724		-10.329156		22.898954		-30.669163		-0.399038		1.722265		12.105472		-1.842341		3.704699		109.301113		-4.539153		14.849641		65.579928		108.463348		-0.619782		5.847020		33.272220		109.315824		-13.275170		20.979552		72.020440		87.412001		-15.805271		3.304153		31.182349		
0.644318		1.687673		-21.834540		86.464548		0.019307		2.026322		1.421260		44.351034		5.579941		4.963632		-82.894466		-8.835108		-9.418831		23.620462		51.916330		-8.292251		-1.219305		-85.168940		-8.007533		-10.277174		22.922823		-31.068315		-0.495997		1.756956		12.285714		-1.820166		3.716131		108.801143		-4.448126		14.930953		65.261529		108.490721		-0.578022		5.897523		33.264776		108.829548		-13.233450		21.082768		71.821184		87.468649		-15.798962		3.380272		31.215881		
0.648864		1.597083		-21.657384		86.379445		0.018902		2.025907		1.414831		44.825284		5.521496		4.802724		-82.695958		-9.114767		-10.632946		23.699332		52.222144		-8.203938		-1.111519		-84.678207		-7.718956		-9.892142		23.044762		-31.419781		-0.626284		1.642972		12.569684		-1.710012		3.789790		108.066310		-3.988601		14.506047		64.880520		108.452024		-0.683220		5.895781		33.185158		108.033120		-13.013178		20.660914		71.737131		87.696283		-15.992709		3.498358		31.306242		
0.653409		1.625049		-21.473538		86.278220		0.018656		2.025375		1.408545		45.313565		5.601299		4.632401		-82.427741		-9.277478		-11.474042		24.004924		52.564563		-8.237509		-0.927368		-84.208139		-7.410697		-9.501681		23.238620		-31.795176		-0.691162		1.689041		12.790550		-1.660457		3.849949		107.386963		-3.812363		14.475130		64.523242		108.691074		-0.625085		5.883771		33.121358		107.380383		-12.924849		20.577950		71.523236		88.234842		-16.007567		3.776591		31.503911		
0.657955		1.677762		-21.328388		86.195070		0.018443		2.024620		1.402381		45.863110		5.720132		4.387356		-82.123650		-9.515326		-12.783111		24.522109		52.973808		-8.284035		-0.726957		-83.771883		-6.931855		-8.884771		23.566651		-32.143588		-0.730887		1.713851		13.033609		-1.592726		3.940153		106.586837		-3.549113		14.298468		64.163365		109.083618		-0.565552		5.809176		33.003095		106.599305		-12.774549		20.275299		71.329464		89.101665		-16.056234		4.176927		31.824408		
0.662500		1.567410		-21.146725		86.147114		0.017883		2.023726		1.396101		46.342588		5.589287		4.166838		-81.800175		-8.974138		-13.623026		24.571063		53.315090		-8.088568		-0.604349		-83.249028		-6.545638		-8.627585		23.688979		-32.520832		-0.846895		1.598479		13.286765		-1.580635		4.015090		105.659598		-3.274065		14.123846		63.834657		109.332378		-0.757201		5.788460		32.851382		105.693039		-12.587981		19.956705		71.072086		89.315720		-16.283644		4.263203		31.827201		
0.667045		1.532020		-20.995419		86.131421		0.017364		2.022492		1.389933		46.927617		5.541569		3.936728		-81.473634		-8.728526		-14.298766		24.425138		53.734622		-7.937253		-0.401560		-82.778809		-6.161896		-8.196793		23.799520		-32.869319		-0.887358		1.524477		13.524888		-1.579810		4.079473		104.717601		-3.108292		14.139824		63.501455		109.786552		-0.914454		5.825824		32.710596		104.822066		-12.535445		19.830586		70.749799		89.668419		-16.456757		4.451021		31.828001		
0.671591		1.540897		-20.894565		86.139234		0.016866		2.021042		1.383846		47.589179		5.518611		3.677695		-81.068933		-8.628975		-14.815313		24.118359		54.215769		-7.808555		-0.121970		-82.277497		-5.765618		-7.620920		23.927428		-33.173728		-0.877920		1.453601		13.734679		-1.608793		4.143704		103.712661		-2.962826		14.168372		63.156895		110.308073		-1.055192		5.929724		32.586921		103.884884		-12.512681		19.688852		70.414446		90.108087		-16.615655		4.698237		31.843069		
0.676136		1.554593		-20.683622		86.110765		0.016468		2.019481		1.377662		48.162458		5.544183		3.537877		-80.661713		-8.586745		-15.025524		23.930674		54.589809		-7.729762		0.070396		-81.789953		-5.564840		-7.314719		23.995386		-33.599928		-0.898552		1.432346		14.009109		-1.616594		4.168925		102.741861		-2.919699		14.333524		62.720776		110.588207		-1.066111		6.054101		32.544718		103.006631		-12.583635		19.743473		69.965595		90.355000		-16.666361		4.896808		31.860963		
0.680682		1.585763		-20.547521		86.087243		0.016179		2.017692		1.371540		48.811362		5.581653		3.381136		-80.175953		-8.547828		-15.104743		23.507090		55.035406		-7.684021		0.275249		-81.248130		-5.329106		-6.866977		24.119704		-33.955421		-0.902056		1.424648		14.272357		-1.641177		4.192839		101.691333		-2.899543		14.533123		62.307625		110.852065		-1.069626		6.280891		32.530959		102.058327		-12.655273		19.715519		69.506604		90.815018		-16.622842		5.213038		31.922662		
